<svg xmlns="http://www.w3.org/2000/svg" width="150" height="100" viewBox="0 0 150 100" class="svg-golden-bay-logo">
  <g fill="none" fill-rule="evenodd">
    <polygon fill="#E8002A" points="74.33 .066 40.171 34.235 108.488 34.235"></polygon>
    <polygon fill="#E8002A" points="74.291 .066 40.132 34.235 108.45 34.235"></polygon>
    <polygon fill="#E8002A" points="74.291 99.25 108.45 65.083 40.132 65.083"></polygon>
    <path fill="#000" d="M8.86005211,54.5262798 C7.78356013,55.6386313 6.5042079,56.0548374 5.06789811,56.0548374 C3.59753149,56.0548374 2.39073512,55.5275443 1.44898973,54.5825639 C0.0911587194,53.2243397 0.128078043,51.5461848 0.128078043,49.2266874 C0.128078043,46.9057088 0.0911587194,45.2260728 1.44898973,43.8678485 C2.39073512,42.9243493 3.5605132,42.3985373 5.06789811,42.3985373 C8.18039624,42.3985373 9.76329847,44.435133 10.124597,46.6983463 L7.48149085,46.6983463 C7.18238304,45.4334352 6.40944107,44.7358086 5.06789811,44.7358086 C4.35418541,44.7358086 3.76929637,45.0187103 3.39170978,45.4526903 C2.88085732,46.0184936 2.75055293,46.6405811 2.75055293,49.2266874 C2.75055293,51.8098313 2.88085732,52.452655 3.39170978,53.0169772 C3.76929637,53.4509572 4.35418541,53.716085 5.06789811,53.716085 C5.86157033,53.716085 6.5042079,53.4331833 6.93510084,52.9606931 C7.36895524,52.4704289 7.53923939,51.8675966 7.53923939,51.1684888 L7.53923939,50.6589696 L5.06789811,50.6589696 L5.06789811,48.4712955 L10.1408851,48.4712955 L10.1408851,50.4338332 C10.1408851,52.3771158 9.80475896,53.5457515 8.86005211,54.5262798 M16.3648448,48.6422214 C16.082025,48.3593198 15.7044384,48.2082414 15.2128355,48.2082414 C14.7227133,48.2082414 14.365857,48.3593198 14.0830372,48.6422214 C13.5736655,49.1517406 13.5159169,50.0004456 13.5159169,51.0180029 C13.5159169,52.0370414 13.5736655,52.9064826 14.0830372,53.4160018 C14.365857,53.6989035 14.7227133,53.8485007 15.2128355,53.8485007 C15.7044384,53.8485007 16.082025,53.6989035 16.3648448,53.4160018 C16.8742165,52.9064826 16.9290036,52.0370414 16.9290036,51.0180029 C16.9290036,50.0004456 16.8742165,49.1517406 16.3648448,48.6422214 M80.2582715,46.1123992 L82.2957584,52.1881197 L84.2562472,46.1123992 L86.8401241,46.1123992 L82.6348459,57.5262223 C82.424582,58.0742517 82.1995108,58.4889767 81.8974415,58.7911334 C81.331802,59.3569367 80.5988398,59.5450441 79.7844373,59.5450441 L78.8234424,59.5450441 L78.8234424,57.3381149 L79.3905627,57.3381149 C80.0879873,57.3381149 80.3708071,57.1677815 80.6151278,56.4508998 L81.0312135,55.2437539 L77.6714331,46.1123992 L80.2582715,46.1123992 Z M39.1996532,46.0002754 C41.933084,46.0002754 43.478968,47.9998421 43.478968,50.6970354 L43.478968,51.7916131 L37.3324505,51.7916131 C37.3324505,53.055043 38.1039118,53.9807683 39.4809923,53.9807683 C40.5574843,53.9807683 41.0861055,53.6786116 41.7094936,53.055043 L43.1991097,54.5080615 C42.1996158,55.5078449 41.2371401,56.0558743 39.4632235,56.0558743 C37.1443976,56.0558743 34.9188578,54.9998068 34.9188578,51.0184473 C34.9188578,47.8117347 36.6542754,46.0002754 39.1996532,46.0002754 Z M105.781941,46.0002754 C108.516852,46.0002754 110.062736,47.9998421 110.062736,50.6970354 L110.062736,51.7916131 L103.914738,51.7916131 C103.914738,53.055043 104.68768,53.9807683 106.06328,53.9807683 C107.139772,53.9807683 107.668393,53.6786116 108.291781,53.055043 L109.781397,54.5080615 C108.781903,55.5078449 107.819428,56.0558743 106.046992,56.0558743 C103.726685,56.0558743 101.501145,54.9998068 101.501145,51.0184473 C101.501145,47.8117347 103.235082,46.0002754 105.781941,46.0002754 Z M130.373193,46.0002754 C133.106624,46.0002754 134.652508,47.9998421 134.652508,50.6970354 L134.652508,51.7916131 L128.50451,51.7916131 C128.50451,53.055043 129.277452,53.9807683 130.654532,53.9807683 C131.728063,53.9807683 132.258165,53.6786116 132.881553,53.055043 L134.369688,54.5080615 C133.370194,55.5078449 132.409199,56.0558743 130.636763,56.0558743 C128.314976,56.0558743 126.090917,54.9998068 126.090917,51.0184473 C126.090917,47.8117347 127.824854,46.0002754 130.373193,46.0002754 Z M95.731474,42.3975005 C98.2398336,42.3975005 100.201803,43.8297827 100.674157,46.6439877 L98.0132816,46.6439877 C97.7482306,45.567184 97.0685747,44.736253 95.7507235,44.736253 C95.0325686,44.736253 94.4491603,44.9998995 94.0730544,45.4338796 C93.562202,45.9996829 93.4126481,46.6439877 93.4126481,49.2271317 C93.4126481,51.8102757 93.562202,52.4516182 94.0730544,53.0174215 C94.4491603,53.4514016 95.0325686,53.7165293 95.7507235,53.7165293 C97.0685747,53.7165293 97.7482306,52.8855982 98.0132816,51.8102757 L100.674157,51.8102757 C100.201803,54.6215184 98.220584,56.0552818 95.731474,56.0552818 C94.2611074,56.0552818 93.0528303,55.5265075 92.1110849,54.5844894 C90.8664064,53.3380928 90.7950331,51.8241101 90.7917812,49.7938316 L90.7917812,48.6600632 C90.7950331,46.6284458 90.8664064,45.1133318 92.1110849,43.8682929 C93.0528303,42.9247936 94.2611074,42.3975005 95.731474,42.3975005 Z M15.2128355,45.999831 C16.6669141,45.999831 17.666408,46.5671155 18.2690658,47.2054957 C19.1560241,48.131221 19.3810954,49.2435726 19.3810954,51.0180029 C19.3810954,52.8102072 19.1560241,53.9225587 18.2690658,54.8468029 C17.666408,55.4896266 16.6669141,56.0554299 15.2128355,56.0554299 C13.7617184,56.0554299 12.781474,55.4896266 12.1758547,54.8468029 C11.2903771,53.9225587 11.0638252,52.8102072 11.0638252,51.0180029 C11.0638252,49.2435726 11.2903771,48.131221 12.1758547,47.2054957 C12.781474,46.5671155 13.7617184,45.999831 15.2128355,45.999831 Z M33.7895037,42.5087356 L33.7895037,55.9428617 L31.3951604,55.9428617 L31.3951604,55.0186175 C30.7155046,55.7725282 29.9973497,56.0554299 28.9593567,56.0554299 C27.9998426,56.0554299 27.0936347,55.714763 26.545764,55.1682147 C25.5655196,54.1862053 25.5477508,52.4917577 25.5477508,51.0180029 C25.5477508,49.5457293 25.5655196,47.8675745 26.545764,46.885565 C27.0936347,46.3390168 27.9791123,45.999831 28.9430687,45.999831 C29.9410819,45.999831 30.6947743,46.2634776 31.3374119,46.9833216 L31.3374119,42.5087356 L33.7895037,42.5087356 Z M73.1790411,45.999831 C75.9317214,45.999831 77.3665505,47.1684667 77.3665505,49.4731525 L77.3665505,55.9428617 L74.9707265,55.9428617 L74.9707265,55.0926756 C74.3103201,55.7532732 73.6884128,56.0361748 72.555653,56.0361748 C71.4436235,56.0361748 70.6307018,55.7532732 70.0472934,55.1682147 C69.5186722,54.6216665 69.2373332,53.8292456 69.2373332,52.9612855 C69.2373332,51.3956989 70.3123444,50.1130138 72.594152,50.1130138 L74.9144587,50.1130138 L74.9144587,49.6212685 C74.9144587,48.5489083 74.3858375,48.0749369 73.0842743,48.0749369 C72.1425289,48.0749369 71.7086745,48.3030357 71.1993027,48.8866129 L69.6326886,47.3580552 C70.5951642,46.3005066 71.5383903,45.999831 73.1790411,45.999831 Z M63.9934698,42.5103649 C66.6173264,42.5103649 68.1439609,43.9796762 68.1439609,46.2828808 C68.1439609,47.7744095 67.1622357,48.7356826 66.4855413,49.0570945 C67.2940208,49.4333093 68.3320138,50.2834954 68.3320138,52.0742185 C68.3320138,54.5833044 66.6173264,55.9430098 64.2200217,55.9430098 L58.6006448,55.9430098 L58.6006448,42.5103649 L63.9934698,42.5103649 Z M148.133534,43.493263 L148.133534,46.3978189 L149.868951,46.3978189 L149.868951,48.2640811 L148.133534,48.2640811 L148.133534,52.9786151 C148.133534,53.5473808 148.397104,53.8673114 148.983474,53.8673114 L149.868951,53.8673114 L149.868951,55.9424174 L148.53037,55.9424174 C146.531382,55.9424174 145.681442,54.5264279 145.681442,53.1311747 L145.681442,48.2640811 L144.64493,48.2640811 L144.64493,46.3978189 L145.681442,46.3978189 L145.681442,43.493263 L148.133534,43.493263 Z M49.458607,45.9993867 C50.4373707,45.9993867 51.2295622,46.3207985 51.7774329,46.8673467 C52.5711051,47.6597676 52.7769268,48.5840118 52.7769268,49.6622967 L52.7769268,55.9424174 L50.3263158,55.9424174 L50.3263158,49.9985201 C50.3263158,48.659551 49.4763758,48.207797 48.7034338,48.207797 C47.9304918,48.207797 47.062783,48.659551 47.062783,49.9985201 L47.062783,55.9424174 L44.6106913,55.9424174 L44.6106913,46.113436 L47.007996,46.113436 L47.007996,47.0199063 C47.6461913,46.3415348 48.5538799,45.9993867 49.458607,45.9993867 Z M22.9462532,42.5112536 L22.9462532,52.9786151 C22.9462532,53.5651547 23.1905739,53.8673114 23.8124813,53.8673114 L24.7557074,53.8673114 L24.7557074,55.9424174 L23.3593773,55.9424174 C21.3441014,55.9424174 20.4926807,54.5264279 20.4926807,53.1311747 L20.4926807,42.5112536 L22.9462532,42.5112536 Z M121.585346,45.9993867 C122.565591,45.9993867 123.45403,46.3207985 124.00042,46.8673467 C124.791131,47.6597676 125.075431,48.5840118 125.075431,49.6622967 L125.075431,55.9424174 L122.623339,55.9424174 L122.623339,49.9985201 C122.623339,48.659551 121.77488,48.207797 121.000457,48.207797 C120.248246,48.207797 119.359807,48.659551 119.359807,49.942236 L119.359807,55.9424174 L116.909196,55.9424174 L116.909196,49.9985201 C116.909196,48.659551 116.059256,48.207797 115.286314,48.207797 C114.511891,48.207797 113.647143,48.659551 113.647143,49.9985201 L113.647143,55.9424174 L111.193571,55.9424174 L111.193571,46.113436 L113.589395,46.113436 L113.589395,47.0199063 C114.229071,46.3593087 115.133798,45.9993867 116.042967,45.9993867 C117.132786,45.9993867 118.021225,46.3978189 118.643132,47.2450427 C119.472342,46.3770826 120.360781,45.9993867 121.585346,45.9993867 Z M140.629185,45.9993867 C141.60943,45.9993867 142.401621,46.3207985 142.949492,46.8673467 C143.743164,47.6597676 143.948986,48.5840118 143.948986,49.6622967 L143.948986,55.9424174 L141.496894,55.9424174 L141.496894,49.9985201 C141.496894,48.659551 140.649916,48.207797 139.875493,48.207797 C139.102551,48.207797 138.233361,48.659551 138.233361,49.9985201 L138.233361,55.9424174 L135.78275,55.9424174 L135.78275,46.113436 L138.180055,46.113436 L138.180055,47.0199063 C138.81825,46.3415348 139.724458,45.9993867 140.629185,45.9993867 Z M74.9144587,51.7911687 L72.9717386,51.7911687 C72.0862611,51.7911687 71.5946581,52.2073748 71.5946581,52.9050014 C71.5946581,53.583373 72.0462813,54.0380893 73.0087569,54.0380893 C73.6884128,54.0380893 74.1222672,53.9818052 74.5561216,53.5641179 C74.8196919,53.3197264 74.9144587,52.9242565 74.9144587,52.319943 L74.9144587,51.7911687 Z M29.6582621,48.2067602 C28.1878955,48.2067602 27.9998426,49.4139061 27.9998426,51.0180029 C27.9998426,52.6206186 28.1878955,53.8485007 29.6582621,53.8485007 C31.1301095,53.8485007 31.3374119,52.6206186 31.3374119,51.0180029 C31.3374119,49.4139061 31.1301095,48.2067602 29.6582621,48.2067602 Z M63.9564515,50.3012693 L61.2230207,50.3012693 L61.2230207,53.6027762 L63.9564515,53.6027762 C65.1454791,53.6027762 65.7111186,52.8473843 65.7111186,51.9409141 C65.7111186,51.0374061 65.1454791,50.3012693 63.9564515,50.3012693 Z M130.373193,48.0398334 C129.542503,48.0398334 128.996113,48.4723323 128.731062,49.0573907 C128.580027,49.4143504 128.52524,49.677997 128.50451,50.1134582 L132.237434,50.1134582 C132.219666,49.677997 132.163398,49.4143504 132.013844,49.0573907 C131.748793,48.4723323 131.202403,48.0398334 130.373193,48.0398334 Z M105.781941,48.0398334 C104.952731,48.0398334 104.406341,48.4723323 104.142771,49.0573907 C103.991736,49.4143504 103.933987,49.677997 103.914738,50.1134582 L107.649143,50.1134582 C107.631375,49.677997 107.573626,49.4143504 107.424072,49.0573907 C107.159021,48.4723323 106.612631,48.0398334 105.781941,48.0398334 Z M39.1996532,48.0398334 C38.3704435,48.0398334 37.8240535,48.4723323 37.5590025,49.0573907 C37.4094486,49.4143504 37.3517,49.677997 37.3324505,50.1134582 L41.0653752,50.1134582 C41.0490872,49.677997 40.9913387,49.4143504 40.8417848,49.0573907 C40.575253,48.4723323 40.028863,48.0398334 39.1996532,48.0398334 Z M63.7876481,44.8491174 L61.2230207,44.8491174 L61.2230207,47.9432618 L63.7876481,47.9432618 C64.8996776,47.9432618 65.5215849,47.3211743 65.5215849,46.3969302 C65.5215849,45.4712048 64.8996776,44.8491174 63.7876481,44.8491174 Z"></path>
  </g>
</svg>