<?xml version="1.0" encoding="utf-8"?>
<svg version="1.2" baseProfile="tiny" id="Layer_1" xmlns="http://www.w3.org/2000/svg" xmlns:xlink="http://www.w3.org/1999/xlink"
	 x="0px" y="0px" viewBox="0 0 144 144" overflow="visible" xml:space="preserve">
<title>If Else Cloud Ltd.</title>
<desc>If Else Cloud - Smart Manufacturing Software</desc>
<path fill="#EF7A33" d="M72,8h39c6.6,0,13,2.6,17.7,7.3c4.7,4.7,7.3,11,7.3,17.7v39H72V8z"/>
<path fill="#0D678D" d="M72,72h64v39c0,6.6-2.6,13-7.3,17.7c-4.7,4.7-11,7.3-17.7,7.3H72V72z"/>
<path fill="#F4C433" d="M8,72h64v64H33c-6.6,0-13-2.6-17.7-7.3C10.6,124,8,117.6,8,111V72z"/>
<path fill="#63C0C4" d="M33,8h39v64H8V33c0-6.6,2.6-13,7.3-17.7S26.4,8,33,8z"/>
<g>
	<path fill="#FFFFFF" d="M124,72c0-28.7-23.3-52-52-52c-28.7,0-52,23.3-52,52c0,28.7,23.3,52,52,52C100.7,124,124,100.7,124,72z"/>
</g>
<path fill="#014161" d="M90.3,67.4c7.6,0,13.7-6.1,13.7-13.7S97.9,40,90.3,40s-13.7,6.1-13.7,13.7S82.7,67.4,90.3,67.4z"/>
<path fill="#014161" d="M90.3,103.8c7.6,0,13.7-6.1,13.7-13.7c0-7.6-6.1-13.7-13.7-13.7s-13.7,6.1-13.7,13.7
	C76.6,97.7,82.7,103.8,90.3,103.8z"/>
<path fill="#014161" d="M53.7,104c7.6,0,13.7-6.1,13.7-13.7c0-7.6-6.1-13.7-13.7-13.7S40,82.8,40,90.3C40,97.9,46.1,104,53.7,104z"
	/>
<path fill="#004261" d="M62,54.1c0-1.1-0.2-2.2-0.6-3.2c-0.4-1-1-2-1.8-2.8c-0.7-0.8-1.7-1.4-2.7-1.9c-1-0.4-2.1-0.6-3.2-0.6
	c-2.2,0-4.2,0.9-5.8,2.5c-1.5,1.5-2.4,3.6-2.5,5.8v0.5l-4.5,2v-2.2c0-1.7,0.3-3.4,1-5c0.6-1.6,1.6-3,2.8-4.2
	c1.2-1.2,2.6-2.2,4.1-2.9c1.6-0.7,3.2-1,4.9-1c1.7,0,3.4,0.3,4.9,1c1.6,0.7,3,1.6,4.1,2.9c1.2,1.2,2.2,2.7,2.8,4.3
	c0.6,1.6,0.9,3.3,0.9,5v0.1c0,1.7-0.3,3.5-1.1,5c-0.7,1.6-1.8,3-3.1,4.1c-0.2,0.3-2.5,1.8-6.9,4.3c-0.5,0.2-0.9,0.5-1.3,1
	c-0.3,0.4-0.6,0.9-0.7,1.4c-0.1,0.5-0.1,1.1,0,1.6l-4.5,2c0-0.2,0-1.5,0.1-4.2c0-2.2,2.1-4.5,6.3-6.9c1.5-0.8,3-1.7,4.3-2.8
	c0.8-0.7,1.5-1.6,1.9-2.6C61.9,56.3,62.1,55.2,62,54.1z"/>
<path fill="#004261" d="M48,75.1v-1.4c0-0.2,0-1.6,0.1-4.2s2.3-5.1,6.8-7.7c1.5-0.8,2.9-1.7,4.2-2.7c0.7-0.6,1.3-1.4,1.6-2.3
	c0.4-0.9,0.5-1.8,0.4-2.8c0-1-0.2-2-0.5-2.9c-0.4-0.9-0.9-1.8-1.6-2.5c-0.7-0.7-1.5-1.3-2.4-1.6c-0.9-0.4-1.9-0.6-2.8-0.6
	c-1,0-1.9,0.2-2.8,0.6c-0.9,0.4-1.7,0.9-2.4,1.7c-0.7,0.6-1.2,1.4-1.6,2.3c-0.4,0.9-0.6,1.8-0.6,2.8V55L40,57.8v-3.7
	c0-1.8,0.3-3.6,1-5.3c0.7-1.7,1.7-3.2,3-4.5c1.2-1.3,2.7-2.4,4.4-3.1c1.7-0.7,3.5-1.1,5.3-1c1.8,0,3.6,0.3,5.3,1
	c1.7,0.7,3.2,1.7,4.4,3.1c1.3,1.3,2.3,2.9,3,4.6c0.7,1.7,1,3.6,1,5.4c0,1.9-0.3,3.7-1.1,5.4c-0.8,1.7-1.9,3.2-3.3,4.4
	c-0.3,0.3-1.2,1-7.1,4.4c-0.4,0.2-0.7,0.4-1,0.7c-0.3,0.3-0.5,0.7-0.6,1c-0.1,0.4-0.1,0.9,0,1.3l0.1,0.7L48,75.1z M53.8,44.6
	c1.2,0,2.4,0.2,3.5,0.7c1.1,0.5,2.1,1.2,3,2.1c1.7,1.8,2.7,4.2,2.7,6.7c0.1,1.2-0.1,2.5-0.6,3.6c-0.5,1.1-1.2,2.2-2.1,3
	c-1.4,1.1-2.9,2-4.5,2.9c-3.8,2.1-5.8,4.2-5.8,6c0,1.1,0,2-0.1,2.7l2.6-1.2c-0.1-0.4,0-0.9,0.1-1.3c0.2-0.6,0.5-1.2,0.9-1.7
	c0.4-0.5,0.9-0.9,1.5-1.2c2.3-1.2,4.5-2.5,6.6-4c1.3-1,2.3-2.3,3-3.8c0.7-1.5,1-3.1,1-4.7c0.1-1.6-0.2-3.2-0.8-4.7
	c-0.6-1.5-1.5-2.9-2.6-4c-1.1-1.1-2.4-2.1-3.8-2.7c-1.5-0.6-3-0.9-4.6-0.9c-1.6,0-3.1,0.3-4.6,0.9c-1.5,0.6-2.8,1.5-3.8,2.7
	c-1.1,1.1-2,2.4-2.6,3.9c-0.6,1.5-0.9,3-0.9,4.6V55l2.7-1.2c0.1-2.4,1.1-4.7,2.8-6.4C49.1,45.7,51.4,44.7,53.8,44.6L53.8,44.6z"/>
</svg>
